<svg xmlns="http://www.w3.org/2000/svg" xmlns:xlink="http://www.w3.org/1999/xlink" width="5400" zoomAndPan="magnify" viewBox="0 0 4050 525.000007" height="700" preserveAspectRatio="xMidYMid meet" version="1.0"><defs><g/><clipPath id="9c28589f62"><path d="M 120 13.125 L 615 13.125 L 615 510.929688 L 120 510.929688 Z M 120 13.125 " clip-rule="nonzero"/></clipPath></defs><g clip-path="url(#9c28589f62)"><path fill="#ffffff" d="M 331.921875 489.433594 C 367.476562 453.5625 407.0625 423.84375 445.90625 399.542969 C 499.605469 366.003906 552.035156 342.761719 590.238281 328.117188 C 591.621094 323.554688 592.894531 318.882812 593.953125 314.214844 C 556.492188 316.546875 497.378906 322.917969 432.214844 340.214844 C 363.230469 358.679688 287.457031 389.457031 223.777344 440.824219 C 254.34375 465.660156 291.382812 482.851562 331.921875 489.433594 M 582.28125 350.402344 C 546.621094 364.835938 501.410156 385.851562 455.246094 414.71875 C 421.070312 436.050781 386.367188 461.734375 354.632812 492.085938 C 359.410156 492.402344 364.292969 492.511719 369.175781 492.511719 C 424.996094 492.511719 476.683594 472.558594 517.011719 439.019531 C 545.242188 415.355469 567.847656 385.214844 582.28125 350.402344 Z M 278.539062 382.453125 C 258.375 372.160156 237.679688 363.667969 216.5625 356.769531 C 195.230469 349.765625 173.683594 344.355469 152.246094 340.320312 C 163.921875 372.371094 182.386719 401.238281 206.054688 424.90625 C 207.433594 426.285156 208.8125 427.664062 210.195312 428.9375 C 231.84375 411.214844 254.875 395.828125 278.539062 382.453125 Z M 146.199219 321.21875 C 171.5625 325.570312 197.035156 331.617188 222.078125 339.898438 C 247.65625 348.28125 272.914062 359 297.324219 372.371094 C 319.613281 360.910156 342.21875 351.253906 364.714844 342.867188 C 330.011719 328.542969 294.035156 319.308594 258.269531 313.894531 C 218.894531 307.953125 179.945312 306.464844 143.121094 307.953125 C 143.96875 312.410156 145.03125 316.867188 146.199219 321.21875 Z M 572.304688 152.15625 C 554.6875 119.46875 529.640625 91.980469 499.820312 71.496094 C 462.25 45.707031 416.933594 31.0625 369.28125 31.0625 C 324.28125 31.0625 282.253906 43.902344 246.808594 66.191406 C 349.753906 35.414062 440.492188 71.496094 446.4375 73.832031 C 450.46875 75.316406 453.015625 79.667969 452.0625 84.019531 C 451.105469 88.796875 446.328125 91.875 441.554688 90.917969 C 371.402344 76.273438 309.953125 104.714844 284.695312 119.148438 C 357.710938 158.3125 411.625 150.5625 459.488281 143.769531 C 498.652344 138.253906 533.992188 133.265625 572.304688 152.15625 Z M 268.988281 297.550781 C 309.53125 304.34375 350.285156 316.019531 389.445312 334.378906 C 402.285156 330.132812 415.128906 326.417969 427.652344 323.023438 C 441.660156 319.308594 455.457031 316.019531 468.828125 313.257812 C 468.933594 311.136719 469.042969 309.011719 469.042969 306.890625 C 469.042969 279.191406 457.792969 254.144531 439.75 235.996094 C 421.601562 217.847656 396.554688 206.597656 368.855469 206.597656 C 341.367188 206.597656 316.429688 217.636719 298.386719 235.574219 C 282.042969 251.703125 271.21875 273.355469 268.988281 297.550781 Z M 587.800781 182.71875 C 587.585938 182.613281 587.480469 182.507812 587.375 182.402344 C 544.5 149.714844 505.867188 155.234375 461.929688 161.496094 C 408.441406 169.136719 347.628906 177.730469 262.726562 127.320312 C 258.480469 124.773438 257.101562 119.363281 259.542969 115.117188 C 260.285156 113.949219 261.242188 112.992188 262.300781 112.25 C 265.167969 110.234375 304.859375 82.851562 361.214844 72.878906 C 316.640625 68.84375 258.375 73.089844 200.21875 104.820312 C 161.90625 146 138.554688 201.1875 138.554688 261.890625 C 138.554688 271.550781 139.195312 281.101562 140.253906 290.441406 C 175.914062 288.953125 213.484375 290.015625 251.476562 295.109375 C 254.34375 267.09375 266.972656 241.941406 285.863281 223.15625 C 307.195312 202.035156 336.488281 189.089844 368.855469 189.089844 C 401.4375 189.089844 430.941406 202.355469 452.273438 223.6875 C 473.605469 245.019531 486.871094 274.523438 486.871094 307.101562 C 486.871094 308.058594 486.871094 309.011719 486.871094 309.863281 C 535.796875 300.628906 577.71875 297.234375 604.566406 296.066406 C 604.671875 296.066406 604.886719 296.066406 604.992188 296.066406 L 605.203125 296.066406 C 609.980469 296.066406 613.90625 299.78125 614.117188 304.554688 C 614.117188 305.617188 614.011719 306.574219 613.800781 307.421875 C 611.890625 317.503906 609.449219 327.265625 606.476562 336.925781 C 606.371094 337.5625 606.160156 338.199219 605.839844 338.835938 C 591.089844 384.152344 563.921875 423.421875 528.683594 452.816406 C 485.277344 489.113281 429.457031 510.550781 369.492188 510.550781 C 300.828125 510.550781 238.742188 482.746094 193.742188 437.746094 C 148.425781 392.535156 120.621094 330.34375 120.621094 261.679688 C 120.621094 193.015625 148.425781 130.929688 193.425781 85.929688 C 238.421875 40.933594 300.613281 13.125 369.175781 13.125 C 420.539062 13.125 469.253906 28.941406 509.792969 56.746094 C 550.015625 84.339844 582.175781 123.710938 600.640625 171.257812 C 602.339844 174.230469 602.125 178.050781 599.898438 180.917969 C 597.03125 184.738281 591.621094 185.480469 587.800781 182.71875 Z M 587.800781 182.71875 " fill-opacity="1" fill-rule="evenodd"/></g><g fill="#ffffff" fill-opacity="1"><g transform="translate(748.72934, 395.152629)"><g><path d="M 145.359375 3.5625 C 127.066406 3.5625 110.082031 0.359375 94.40625 -6.046875 C 78.738281 -12.460938 65.144531 -21.429688 53.625 -32.953125 C 42.101562 -44.472656 33.132812 -58.070312 26.71875 -73.75 C 20.300781 -89.425781 17.09375 -106.410156 17.09375 -124.703125 C 17.09375 -142.984375 20.300781 -159.960938 26.71875 -175.640625 C 33.132812 -191.316406 42.101562 -204.914062 53.625 -216.4375 C 65.144531 -227.957031 78.738281 -236.921875 94.40625 -243.328125 C 110.082031 -249.742188 127.066406 -252.953125 145.359375 -252.953125 C 157.953125 -252.953125 170.125 -251.46875 181.875 -248.5 C 193.632812 -245.53125 204.144531 -241.078125 213.40625 -235.140625 C 215.070312 -233.953125 216.320312 -232.585938 217.15625 -231.046875 C 217.988281 -229.503906 218.40625 -227.898438 218.40625 -226.234375 C 218.40625 -222.910156 217.332031 -220.238281 215.1875 -218.21875 C 213.050781 -216.195312 210.796875 -215.1875 208.421875 -215.1875 C 207.234375 -215.1875 206.101562 -215.363281 205.03125 -215.71875 C 203.96875 -216.082031 202.960938 -216.5 202.015625 -216.96875 C 193.929688 -221.488281 185.140625 -225.050781 175.640625 -227.65625 C 166.140625 -230.269531 156.046875 -231.578125 145.359375 -231.578125 C 124.929688 -231.578125 106.757812 -226.945312 90.84375 -217.6875 C 74.9375 -208.425781 62.46875 -195.71875 53.4375 -179.5625 C 44.414062 -163.414062 39.90625 -145.128906 39.90625 -124.703125 C 39.90625 -104.273438 44.414062 -85.984375 53.4375 -69.828125 C 62.46875 -53.679688 74.9375 -40.972656 90.84375 -31.703125 C 106.757812 -22.441406 124.929688 -17.8125 145.359375 -17.8125 C 156.046875 -17.8125 166.789062 -19.351562 177.59375 -22.4375 C 188.40625 -25.53125 197.734375 -29.691406 205.578125 -34.921875 L 203.796875 -27.4375 L 203.796875 -109.375 L 209.140625 -104.390625 L 147.5 -104.390625 C 144.414062 -104.390625 141.800781 -105.457031 139.65625 -107.59375 C 137.519531 -109.726562 136.453125 -112.222656 136.453125 -115.078125 C 136.453125 -118.398438 137.519531 -121.007812 139.65625 -122.90625 C 141.800781 -124.8125 144.414062 -125.765625 147.5 -125.765625 L 215.546875 -125.765625 C 218.640625 -125.765625 221.191406 -124.753906 223.203125 -122.734375 C 225.222656 -120.710938 226.234375 -118.160156 226.234375 -115.078125 L 226.234375 -29.21875 C 226.234375 -27.3125 225.757812 -25.523438 224.8125 -23.859375 C 223.863281 -22.203125 222.554688 -20.78125 220.890625 -19.59375 C 210.441406 -12.46875 198.742188 -6.828125 185.796875 -2.671875 C 172.859375 1.484375 159.378906 3.5625 145.359375 3.5625 Z M 145.359375 3.5625 "/></g></g></g><g fill="#ffffff" fill-opacity="1"><g transform="translate(1032.325486, 395.152629)"><g><path d="M 45.609375 0 C 42.046875 0 39.132812 -1.066406 36.875 -3.203125 C 34.613281 -5.335938 33.484375 -7.832031 33.484375 -10.6875 L 33.484375 -238.703125 C 33.484375 -241.554688 34.550781 -244.050781 36.6875 -246.1875 C 38.832031 -248.320312 41.328125 -249.390625 44.171875 -249.390625 L 140.375 -249.390625 C 153.914062 -249.390625 166.03125 -246.476562 176.71875 -240.65625 C 187.40625 -234.84375 195.773438 -226.828125 201.828125 -216.609375 C 207.890625 -206.398438 210.921875 -194.882812 210.921875 -182.0625 C 210.921875 -171.613281 209.019531 -161.992188 205.21875 -153.203125 C 201.414062 -144.410156 196.070312 -136.984375 189.1875 -130.921875 C 182.300781 -124.867188 174.582031 -120.421875 166.03125 -117.578125 L 153.5625 -121.484375 C 162.34375 -120.773438 170.535156 -117.984375 178.140625 -113.109375 C 185.742188 -108.242188 191.859375 -101.59375 196.484375 -93.15625 C 201.117188 -84.726562 203.554688 -74.578125 203.796875 -62.703125 C 204.035156 -52.492188 204.566406 -44.535156 205.390625 -38.828125 C 206.222656 -33.128906 207.46875 -28.851562 209.125 -26 C 210.789062 -23.15625 212.929688 -20.898438 215.546875 -19.234375 C 217.921875 -17.804688 219.523438 -15.785156 220.359375 -13.171875 C 221.191406 -10.566406 220.894531 -8.078125 219.46875 -5.703125 C 218.519531 -3.796875 217.15625 -2.425781 215.375 -1.59375 C 213.59375 -0.769531 211.75 -0.359375 209.84375 -0.359375 C 207.945312 -0.359375 206.050781 -0.832031 204.15625 -1.78125 C 200.820312 -3.675781 197.429688 -6.644531 193.984375 -10.6875 C 190.546875 -14.726562 187.695312 -20.664062 185.4375 -28.5 C 183.1875 -36.34375 182.0625 -47.269531 182.0625 -61.28125 C 182.0625 -70.539062 180.578125 -78.140625 177.609375 -84.078125 C 174.640625 -90.015625 170.835938 -94.585938 166.203125 -97.796875 C 161.566406 -101.003906 156.457031 -103.257812 150.875 -104.5625 C 145.300781 -105.875 140.019531 -106.53125 135.03125 -106.53125 L 52.015625 -106.53125 L 55.9375 -111.515625 L 55.9375 -10.6875 C 55.9375 -7.832031 54.984375 -5.335938 53.078125 -3.203125 C 51.179688 -1.066406 48.691406 0 45.609375 0 Z M 52.015625 -126.125 L 141.4375 -126.125 C 149.519531 -126.832031 157.125 -129.503906 164.25 -134.140625 C 171.375 -138.773438 177.128906 -145.128906 181.515625 -153.203125 C 185.910156 -161.273438 188.109375 -170.65625 188.109375 -181.34375 C 188.109375 -194.882812 183.535156 -206.109375 174.390625 -215.015625 C 165.253906 -223.921875 153.320312 -228.375 138.59375 -228.375 L 53.4375 -228.375 L 55.9375 -233.359375 L 55.9375 -121.140625 Z M 52.015625 -126.125 "/></g></g></g><g fill="#ffffff" fill-opacity="1"><g transform="translate(1307.014768, 395.152629)"><g><path d="M 116.859375 -221.96875 L 30.28125 -6.765625 C 29.332031 -4.390625 28.023438 -2.609375 26.359375 -1.421875 C 24.703125 -0.234375 22.804688 0.359375 20.671875 0.359375 C 17.335938 0.359375 14.835938 -0.53125 13.171875 -2.3125 C 11.515625 -4.09375 10.566406 -6.289062 10.328125 -8.90625 C 10.085938 -10.09375 10.207031 -11.519531 10.6875 -13.1875 L 104.75 -243.34375 C 105.9375 -245.957031 107.421875 -247.796875 109.203125 -248.859375 C 110.984375 -249.929688 113.0625 -250.46875 115.4375 -250.46875 C 117.8125 -250.46875 119.890625 -249.8125 121.671875 -248.5 C 123.453125 -247.195312 124.816406 -245.476562 125.765625 -243.34375 L 219.46875 -14.25 C 219.945312 -12.820312 220.1875 -11.394531 220.1875 -9.96875 C 220.1875 -6.644531 219.113281 -4.09375 216.96875 -2.3125 C 214.832031 -0.53125 212.34375 0.359375 209.5 0.359375 C 207.125 0.359375 205.046875 -0.289062 203.265625 -1.59375 C 201.484375 -2.90625 200.113281 -4.628906 199.15625 -6.765625 L 110.453125 -223.390625 Z M 50.953125 -71.96875 L 59.859375 -92.984375 L 170.296875 -92.984375 L 174.578125 -71.96875 Z M 50.953125 -71.96875 "/></g></g></g><g fill="#ffffff" fill-opacity="1"><g transform="translate(1573.509716, 395.152629)"><g><path d="M 44.171875 -249.390625 C 45.835938 -249.390625 47.5625 -249.035156 49.34375 -248.328125 C 51.125 -247.617188 52.609375 -246.429688 53.796875 -244.765625 L 152.125 -97.265625 L 142.515625 -97.625 L 241.203125 -244.765625 C 243.816406 -248.328125 247.023438 -249.867188 250.828125 -249.390625 C 253.671875 -249.390625 256.101562 -248.378906 258.125 -246.359375 C 260.144531 -244.347656 261.15625 -241.796875 261.15625 -238.703125 L 261.15625 -10.6875 C 261.15625 -7.832031 260.082031 -5.335938 257.9375 -3.203125 C 255.800781 -1.066406 253.191406 0 250.109375 0 C 246.785156 0 244.050781 -1.066406 241.90625 -3.203125 C 239.769531 -5.335938 238.703125 -7.832031 238.703125 -10.6875 L 238.703125 -216.96875 L 245.125 -216.265625 L 154.984375 -79.8125 C 154.265625 -78.382812 153.191406 -77.253906 151.765625 -76.421875 C 150.347656 -75.585938 148.6875 -75.289062 146.78125 -75.53125 C 145.125 -75.289062 143.519531 -75.585938 141.96875 -76.421875 C 140.425781 -77.253906 139.179688 -78.382812 138.234375 -79.8125 L 47.734375 -217.6875 L 54.515625 -222.3125 L 54.515625 -10.6875 C 54.515625 -7.832031 53.503906 -5.335938 51.484375 -3.203125 C 49.460938 -1.066406 46.910156 0 43.828125 0 C 40.734375 0 38.234375 -1.066406 36.328125 -3.203125 C 34.429688 -5.335938 33.484375 -7.832031 33.484375 -10.6875 L 33.484375 -238.703125 C 33.484375 -241.554688 34.492188 -244.050781 36.515625 -246.1875 C 38.535156 -248.320312 41.085938 -249.390625 44.171875 -249.390625 Z M 44.171875 -249.390625 "/></g></g></g><g fill="#ffffff" fill-opacity="1"><g transform="translate(1904.134313, 395.152629)"><g/></g></g><g fill="#ffffff" fill-opacity="1"><g transform="translate(2037.382154, 395.152629)"><g><path d="M 102.25 3.5625 C 84.195312 3.800781 68.519531 0.953125 55.21875 -4.984375 C 41.914062 -10.921875 29.207031 -19.828125 17.09375 -31.703125 C 15.90625 -32.660156 14.894531 -33.847656 14.0625 -35.265625 C 13.238281 -36.691406 12.828125 -38.359375 12.828125 -40.265625 C 12.828125 -43.109375 13.953125 -45.71875 16.203125 -48.09375 C 18.460938 -50.46875 21.019531 -51.65625 23.875 -51.65625 C 26.71875 -51.65625 29.328125 -50.46875 31.703125 -48.09375 C 40.972656 -38.125 51.484375 -30.523438 63.234375 -25.296875 C 74.992188 -20.066406 87.644531 -17.453125 101.1875 -17.453125 C 112.582031 -17.453125 122.734375 -19.234375 131.640625 -22.796875 C 140.546875 -26.359375 147.613281 -31.460938 152.84375 -38.109375 C 158.070312 -44.765625 160.6875 -52.488281 160.6875 -61.28125 C 160.6875 -72.207031 157.71875 -81.054688 151.78125 -87.828125 C 145.84375 -94.597656 138.003906 -100.175781 128.265625 -104.5625 C 118.523438 -108.957031 107.71875 -112.9375 95.84375 -116.5 C 86.101562 -119.351562 76.835938 -122.617188 68.046875 -126.296875 C 59.265625 -129.984375 51.425781 -134.5 44.53125 -139.84375 C 37.644531 -145.1875 32.300781 -151.773438 28.5 -159.609375 C 24.695312 -167.453125 22.796875 -176.953125 22.796875 -188.109375 C 22.796875 -200.703125 26.117188 -211.867188 32.765625 -221.609375 C 39.421875 -231.347656 48.863281 -239.003906 61.09375 -244.578125 C 73.332031 -250.160156 87.523438 -252.953125 103.671875 -252.953125 C 117.691406 -252.953125 131.171875 -250.578125 144.109375 -245.828125 C 157.054688 -241.078125 167.332031 -234.070312 174.9375 -224.8125 C 178.5 -221.007812 180.28125 -217.566406 180.28125 -214.484375 C 180.28125 -212.109375 179.09375 -209.734375 176.71875 -207.359375 C 174.34375 -204.984375 171.726562 -203.796875 168.875 -203.796875 C 166.5 -203.796875 164.484375 -204.625 162.828125 -206.28125 C 158.785156 -211.269531 153.675781 -215.722656 147.5 -219.640625 C 141.320312 -223.566406 134.492188 -226.597656 127.015625 -228.734375 C 119.535156 -230.867188 111.753906 -231.9375 103.671875 -231.9375 C 92.515625 -231.9375 82.484375 -230.210938 73.578125 -226.765625 C 64.671875 -223.328125 57.660156 -218.398438 52.546875 -211.984375 C 47.441406 -205.578125 44.890625 -197.859375 44.890625 -188.828125 C 44.890625 -178.847656 47.738281 -170.648438 53.4375 -164.234375 C 59.144531 -157.828125 66.628906 -152.546875 75.890625 -148.390625 C 85.148438 -144.234375 95.003906 -140.375 105.453125 -136.8125 C 115.671875 -133.957031 125.46875 -130.6875 134.84375 -127 C 144.226562 -123.320312 152.539062 -118.753906 159.78125 -113.296875 C 167.03125 -107.835938 172.734375 -100.945312 176.890625 -92.625 C 181.046875 -84.3125 183.125 -73.863281 183.125 -61.28125 C 183.125 -49.164062 179.679688 -38.238281 172.796875 -28.5 C 165.910156 -18.757812 156.46875 -11.039062 144.46875 -5.34375 C 132.476562 0.351562 118.40625 3.320312 102.25 3.5625 Z M 102.25 3.5625 "/></g></g></g><g fill="#ffffff" fill-opacity="1"><g transform="translate(2273.593655, 395.152629)"><g><path d="M 116.859375 -221.96875 L 30.28125 -6.765625 C 29.332031 -4.390625 28.023438 -2.609375 26.359375 -1.421875 C 24.703125 -0.234375 22.804688 0.359375 20.671875 0.359375 C 17.335938 0.359375 14.835938 -0.53125 13.171875 -2.3125 C 11.515625 -4.09375 10.566406 -6.289062 10.328125 -8.90625 C 10.085938 -10.09375 10.207031 -11.519531 10.6875 -13.1875 L 104.75 -243.34375 C 105.9375 -245.957031 107.421875 -247.796875 109.203125 -248.859375 C 110.984375 -249.929688 113.0625 -250.46875 115.4375 -250.46875 C 117.8125 -250.46875 119.890625 -249.8125 121.671875 -248.5 C 123.453125 -247.195312 124.816406 -245.476562 125.765625 -243.34375 L 219.46875 -14.25 C 219.945312 -12.820312 220.1875 -11.394531 220.1875 -9.96875 C 220.1875 -6.644531 219.113281 -4.09375 216.96875 -2.3125 C 214.832031 -0.53125 212.34375 0.359375 209.5 0.359375 C 207.125 0.359375 205.046875 -0.289062 203.265625 -1.59375 C 201.484375 -2.90625 200.113281 -4.628906 199.15625 -6.765625 L 110.453125 -223.390625 Z M 50.953125 -71.96875 L 59.859375 -92.984375 L 170.296875 -92.984375 L 174.578125 -71.96875 Z M 50.953125 -71.96875 "/></g></g></g><g fill="#ffffff" fill-opacity="1"><g transform="translate(2540.088603, 395.152629)"><g><path d="M 44.171875 -249.390625 C 45.835938 -249.390625 47.5625 -249.035156 49.34375 -248.328125 C 51.125 -247.617188 52.609375 -246.429688 53.796875 -244.765625 L 152.125 -97.265625 L 142.515625 -97.625 L 241.203125 -244.765625 C 243.816406 -248.328125 247.023438 -249.867188 250.828125 -249.390625 C 253.671875 -249.390625 256.101562 -248.378906 258.125 -246.359375 C 260.144531 -244.347656 261.15625 -241.796875 261.15625 -238.703125 L 261.15625 -10.6875 C 261.15625 -7.832031 260.082031 -5.335938 257.9375 -3.203125 C 255.800781 -1.066406 253.191406 0 250.109375 0 C 246.785156 0 244.050781 -1.066406 241.90625 -3.203125 C 239.769531 -5.335938 238.703125 -7.832031 238.703125 -10.6875 L 238.703125 -216.96875 L 245.125 -216.265625 L 154.984375 -79.8125 C 154.265625 -78.382812 153.191406 -77.253906 151.765625 -76.421875 C 150.347656 -75.585938 148.6875 -75.289062 146.78125 -75.53125 C 145.125 -75.289062 143.519531 -75.585938 141.96875 -76.421875 C 140.425781 -77.253906 139.179688 -78.382812 138.234375 -79.8125 L 47.734375 -217.6875 L 54.515625 -222.3125 L 54.515625 -10.6875 C 54.515625 -7.832031 53.503906 -5.335938 51.484375 -3.203125 C 49.460938 -1.066406 46.910156 0 43.828125 0 C 40.734375 0 38.234375 -1.066406 36.328125 -3.203125 C 34.429688 -5.335938 33.484375 -7.832031 33.484375 -10.6875 L 33.484375 -238.703125 C 33.484375 -241.554688 34.492188 -244.050781 36.515625 -246.1875 C 38.535156 -248.320312 41.085938 -249.390625 44.171875 -249.390625 Z M 44.171875 -249.390625 "/></g></g></g><g fill="#ffffff" fill-opacity="1"><g transform="translate(2870.713103, 395.152629)"><g><path d="M 128.625 -249.390625 C 141.914062 -249.390625 153.664062 -246.359375 163.875 -240.296875 C 174.09375 -234.242188 182.171875 -225.875 188.109375 -215.1875 C 194.054688 -204.5 197.03125 -192.269531 197.03125 -178.5 C 197.03125 -164.71875 194.054688 -152.304688 188.109375 -141.265625 C 182.171875 -130.222656 174.09375 -121.492188 163.875 -115.078125 C 153.664062 -108.660156 141.914062 -105.453125 128.625 -105.453125 L 53.078125 -105.453125 L 54.875 -109.015625 L 54.875 -10.6875 C 54.875 -7.832031 53.800781 -5.335938 51.65625 -3.203125 C 49.519531 -1.066406 47.023438 0 44.171875 0 C 40.847656 0 38.234375 -1.066406 36.328125 -3.203125 C 34.429688 -5.335938 33.484375 -7.832031 33.484375 -10.6875 L 33.484375 -238.703125 C 33.484375 -241.554688 34.550781 -244.050781 36.6875 -246.1875 C 38.832031 -248.320312 41.328125 -249.390625 44.171875 -249.390625 Z M 128.625 -126.125 C 137.882812 -126.125 145.957031 -128.4375 152.84375 -133.0625 C 159.726562 -137.695312 165.128906 -143.992188 169.046875 -151.953125 C 172.972656 -159.910156 174.9375 -168.757812 174.9375 -178.5 C 174.9375 -188.238281 172.972656 -196.847656 169.046875 -204.328125 C 165.128906 -211.804688 159.726562 -217.679688 152.84375 -221.953125 C 145.957031 -226.234375 137.882812 -228.375 128.625 -228.375 L 53.078125 -228.375 L 54.875 -231.578125 L 54.875 -123.984375 L 52.734375 -126.125 Z M 128.625 -126.125 "/></g></g></g><g fill="#ffffff" fill-opacity="1"><g transform="translate(3119.037949, 395.152629)"><g><path d="M 116.859375 -221.96875 L 30.28125 -6.765625 C 29.332031 -4.390625 28.023438 -2.609375 26.359375 -1.421875 C 24.703125 -0.234375 22.804688 0.359375 20.671875 0.359375 C 17.335938 0.359375 14.835938 -0.53125 13.171875 -2.3125 C 11.515625 -4.09375 10.566406 -6.289062 10.328125 -8.90625 C 10.085938 -10.09375 10.207031 -11.519531 10.6875 -13.1875 L 104.75 -243.34375 C 105.9375 -245.957031 107.421875 -247.796875 109.203125 -248.859375 C 110.984375 -249.929688 113.0625 -250.46875 115.4375 -250.46875 C 117.8125 -250.46875 119.890625 -249.8125 121.671875 -248.5 C 123.453125 -247.195312 124.816406 -245.476562 125.765625 -243.34375 L 219.46875 -14.25 C 219.945312 -12.820312 220.1875 -11.394531 220.1875 -9.96875 C 220.1875 -6.644531 219.113281 -4.09375 216.96875 -2.3125 C 214.832031 -0.53125 212.34375 0.359375 209.5 0.359375 C 207.125 0.359375 205.046875 -0.289062 203.265625 -1.59375 C 201.484375 -2.90625 200.113281 -4.628906 199.15625 -6.765625 L 110.453125 -223.390625 Z M 50.953125 -71.96875 L 59.859375 -92.984375 L 170.296875 -92.984375 L 174.578125 -71.96875 Z M 50.953125 -71.96875 "/></g></g></g><g fill="#ffffff" fill-opacity="1"><g transform="translate(3385.532897, 395.152629)"><g><path d="M 45.609375 0 C 42.046875 0 39.132812 -1.066406 36.875 -3.203125 C 34.613281 -5.335938 33.484375 -7.832031 33.484375 -10.6875 L 33.484375 -238.703125 C 33.484375 -241.554688 34.550781 -244.050781 36.6875 -246.1875 C 38.832031 -248.320312 41.328125 -249.390625 44.171875 -249.390625 L 140.375 -249.390625 C 153.914062 -249.390625 166.03125 -246.476562 176.71875 -240.65625 C 187.40625 -234.84375 195.773438 -226.828125 201.828125 -216.609375 C 207.890625 -206.398438 210.921875 -194.882812 210.921875 -182.0625 C 210.921875 -171.613281 209.019531 -161.992188 205.21875 -153.203125 C 201.414062 -144.410156 196.070312 -136.984375 189.1875 -130.921875 C 182.300781 -124.867188 174.582031 -120.421875 166.03125 -117.578125 L 153.5625 -121.484375 C 162.34375 -120.773438 170.535156 -117.984375 178.140625 -113.109375 C 185.742188 -108.242188 191.859375 -101.59375 196.484375 -93.15625 C 201.117188 -84.726562 203.554688 -74.578125 203.796875 -62.703125 C 204.035156 -52.492188 204.566406 -44.535156 205.390625 -38.828125 C 206.222656 -33.128906 207.46875 -28.851562 209.125 -26 C 210.789062 -23.15625 212.929688 -20.898438 215.546875 -19.234375 C 217.921875 -17.804688 219.523438 -15.785156 220.359375 -13.171875 C 221.191406 -10.566406 220.894531 -8.078125 219.46875 -5.703125 C 218.519531 -3.796875 217.15625 -2.425781 215.375 -1.59375 C 213.59375 -0.769531 211.75 -0.359375 209.84375 -0.359375 C 207.945312 -0.359375 206.050781 -0.832031 204.15625 -1.78125 C 200.820312 -3.675781 197.429688 -6.644531 193.984375 -10.6875 C 190.546875 -14.726562 187.695312 -20.664062 185.4375 -28.5 C 183.1875 -36.34375 182.0625 -47.269531 182.0625 -61.28125 C 182.0625 -70.539062 180.578125 -78.140625 177.609375 -84.078125 C 174.640625 -90.015625 170.835938 -94.585938 166.203125 -97.796875 C 161.566406 -101.003906 156.457031 -103.257812 150.875 -104.5625 C 145.300781 -105.875 140.019531 -106.53125 135.03125 -106.53125 L 52.015625 -106.53125 L 55.9375 -111.515625 L 55.9375 -10.6875 C 55.9375 -7.832031 54.984375 -5.335938 53.078125 -3.203125 C 51.179688 -1.066406 48.691406 0 45.609375 0 Z M 52.015625 -126.125 L 141.4375 -126.125 C 149.519531 -126.832031 157.125 -129.503906 164.25 -134.140625 C 171.375 -138.773438 177.128906 -145.128906 181.515625 -153.203125 C 185.910156 -161.273438 188.109375 -170.65625 188.109375 -181.34375 C 188.109375 -194.882812 183.535156 -206.109375 174.390625 -215.015625 C 165.253906 -223.921875 153.320312 -228.375 138.59375 -228.375 L 53.4375 -228.375 L 55.9375 -233.359375 L 55.9375 -121.140625 Z M 52.015625 -126.125 "/></g></g></g><g fill="#ffffff" fill-opacity="1"><g transform="translate(3660.222134, 395.152629)"><g><path d="M 211.625 1.421875 C 208.539062 1.421875 205.929688 0.113281 203.796875 -2.5 L 102.609375 -129.6875 L 119.359375 -146.4375 L 221.25 -17.453125 C 222.914062 -15.078125 223.75 -12.582031 223.75 -9.96875 C 223.75 -6.175781 222.378906 -3.328125 219.640625 -1.421875 C 216.910156 0.472656 214.238281 1.421875 211.625 1.421875 Z M 207.71875 -248.6875 C 210.5625 -248.6875 212.992188 -247.613281 215.015625 -245.46875 C 217.035156 -243.332031 218.046875 -240.960938 218.046875 -238.359375 C 218.046875 -235.503906 216.976562 -233.007812 214.84375 -230.875 L 53.078125 -79.453125 L 50.234375 -103.671875 L 199.875 -245.125 C 202.25 -247.5 204.863281 -248.6875 207.71875 -248.6875 Z M 44.53125 0 C 41.207031 0 38.535156 -1.066406 36.515625 -3.203125 C 34.492188 -5.335938 33.484375 -7.953125 33.484375 -11.046875 L 33.484375 -238.359375 C 33.484375 -241.441406 34.550781 -244.050781 36.6875 -246.1875 C 38.832031 -248.320312 41.566406 -249.390625 44.890625 -249.390625 C 47.972656 -249.390625 50.582031 -248.320312 52.71875 -246.1875 C 54.863281 -244.050781 55.9375 -241.441406 55.9375 -238.359375 L 55.9375 -11.046875 C 55.695312 -7.953125 54.507812 -5.335938 52.375 -3.203125 C 50.238281 -1.066406 47.625 0 44.53125 0 Z M 44.53125 0 "/></g></g></g></svg>