<svg xmlns="http://www.w3.org/2000/svg" xmlns:xlink="http://www.w3.org/1999/xlink" width="2000" zoomAndPan="magnify" viewBox="0 0 1500 1499.999933" height="2000" preserveAspectRatio="xMidYMid meet" version="1.0"><defs><g/></defs><path fill="#ff9933" d="M 643.175781 1435.394531 C 750.320312 1327.292969 869.617188 1237.738281 986.671875 1164.5 C 1148.507812 1063.433594 1306.503906 993.390625 1421.640625 949.253906 C 1425.800781 935.5 1429.636719 921.429688 1432.835938 907.355469 C 1319.9375 914.390625 1141.789062 933.582031 945.414062 985.714844 C 737.527344 1041.363281 509.167969 1134.113281 317.269531 1288.914062 C 409.382812 1363.753906 521.003906 1415.566406 643.175781 1435.394531 M 1397.65625 1016.417969 C 1290.191406 1059.914062 1153.945312 1123.242188 1014.820312 1210.234375 C 911.832031 1274.519531 807.25 1351.917969 711.621094 1443.390625 C 726.011719 1444.347656 740.726562 1444.667969 755.4375 1444.667969 C 923.667969 1444.667969 1079.425781 1384.542969 1200.960938 1283.476562 C 1286.035156 1212.152344 1354.15625 1121.320312 1397.65625 1016.417969 Z M 482.304688 1113.007812 C 421.535156 1081.984375 359.167969 1056.394531 295.523438 1035.605469 C 231.238281 1014.5 166.3125 998.1875 101.707031 986.035156 C 136.886719 1082.621094 192.539062 1169.617188 263.859375 1240.9375 C 268.015625 1245.097656 272.175781 1249.253906 276.332031 1253.089844 C 341.578125 1199.679688 410.980469 1153.304688 482.304688 1113.007812 Z M 83.476562 928.464844 C 159.914062 941.578125 236.671875 959.808594 312.152344 984.753906 C 389.234375 1010.019531 465.351562 1042.324219 538.914062 1082.621094 C 606.078125 1048.082031 674.199219 1018.976562 742.003906 993.710938 C 637.421875 950.53125 528.996094 922.707031 421.214844 906.398438 C 302.558594 888.484375 185.179688 884.007812 74.199219 888.484375 C 76.757812 901.917969 79.957031 915.351562 83.476562 928.464844 Z M 1367.589844 418.976562 C 1314.5 320.46875 1239.019531 237.632812 1149.148438 175.90625 C 1035.925781 98.1875 899.359375 54.050781 755.757812 54.050781 C 620.148438 54.050781 493.496094 92.75 386.675781 159.914062 C 696.910156 67.164062 970.363281 175.90625 988.273438 182.941406 C 1000.425781 187.421875 1008.101562 200.53125 1005.222656 213.644531 C 1002.34375 228.039062 987.953125 237.3125 973.5625 234.433594 C 762.152344 190.296875 576.972656 276.011719 500.851562 319.507812 C 720.894531 437.527344 883.367188 414.179688 1027.613281 393.710938 C 1145.628906 377.078125 1252.132812 362.046875 1367.589844 418.976562 Z M 453.519531 857.144531 C 575.691406 877.613281 698.507812 912.792969 816.523438 968.125 C 855.222656 955.332031 893.921875 944.136719 931.664062 933.902344 C 973.878906 922.707031 1015.457031 912.792969 1055.757812 904.476562 C 1056.078125 898.082031 1056.398438 891.683594 1056.398438 885.289062 C 1056.398438 801.8125 1022.496094 726.332031 968.125 671.640625 C 913.433594 616.949219 837.953125 583.050781 754.476562 583.050781 C 671.640625 583.050781 596.480469 616.3125 542.109375 670.363281 C 492.855469 718.976562 460.234375 784.222656 453.519531 857.144531 Z M 1414.285156 511.085938 C 1413.644531 510.765625 1413.324219 510.449219 1413.007812 510.128906 C 1283.796875 411.621094 1167.378906 428.25 1034.96875 447.121094 C 873.773438 470.148438 690.511719 496.054688 434.648438 344.136719 C 421.855469 336.460938 417.695312 320.148438 425.054688 307.355469 C 427.292969 303.839844 430.171875 300.960938 433.367188 298.71875 C 442.003906 292.644531 561.621094 210.128906 731.449219 180.0625 C 597.121094 167.910156 421.535156 180.703125 246.269531 276.332031 C 130.808594 400.425781 60.449219 566.738281 60.449219 749.679688 C 60.449219 778.785156 62.367188 807.570312 65.566406 835.714844 C 173.027344 831.238281 286.246094 834.433594 400.746094 849.785156 C 409.382812 765.351562 447.441406 689.550781 504.371094 632.941406 C 568.65625 569.296875 656.929688 530.277344 754.476562 530.277344 C 852.664062 530.277344 941.578125 570.253906 1005.863281 634.542969 C 1070.148438 698.828125 1110.128906 787.738281 1110.128906 885.925781 C 1110.128906 888.804688 1110.128906 891.683594 1110.128906 894.242188 C 1257.570312 866.417969 1383.902344 856.183594 1464.820312 852.664062 C 1465.136719 852.664062 1465.777344 852.664062 1466.097656 852.664062 L 1466.738281 852.664062 C 1481.128906 852.664062 1492.964844 863.859375 1493.601562 878.25 C 1493.601562 881.449219 1493.285156 884.328125 1492.644531 886.886719 C 1486.886719 917.269531 1479.53125 946.695312 1470.574219 975.800781 C 1470.253906 977.71875 1469.617188 979.636719 1468.65625 981.554688 C 1424.199219 1118.125 1342.324219 1236.460938 1236.140625 1325.054688 C 1105.332031 1434.433594 937.101562 1499.039062 756.394531 1499.039062 C 549.46875 1499.039062 362.367188 1415.246094 226.757812 1279.636719 C 90.191406 1143.390625 6.398438 955.96875 6.398438 749.039062 C 6.398438 542.109375 90.191406 355.011719 225.800781 219.402344 C 361.40625 83.796875 548.828125 0 755.4375 0 C 910.234375 0 1057.035156 47.65625 1179.210938 131.449219 C 1300.425781 214.605469 1397.335938 333.261719 1452.984375 476.546875 C 1458.101562 485.5 1457.460938 497.015625 1450.746094 505.648438 C 1442.109375 517.164062 1425.800781 519.402344 1414.285156 511.085938 Z M 1414.285156 511.085938 " fill-opacity="1" fill-rule="evenodd"/><g fill="#ffffff" fill-opacity="1"><g transform="translate(686.128102, 774.374913)"><g><path d="M 35.65625 -45.6875 L 35.65625 -41.125 L 21.34375 -41.125 L 21.34375 0 L 16 0 L 16 -41.125 L 1.6875 -41.125 L 1.6875 -45.6875 Z M 35.65625 -45.6875 "/></g></g></g><g fill="#ffffff" fill-opacity="1"><g transform="translate(719.00099, 774.374913)"><g><path d="M 32.84375 -16.0625 L 9.15625 -16.0625 C 9.300781 -11.875 10.304688 -8.800781 12.171875 -6.84375 C 14.035156 -4.882812 16.59375 -3.90625 19.84375 -3.90625 C 22.300781 -3.90625 24.28125 -4.34375 25.78125 -5.21875 C 27.28125 -6.09375 28.457031 -7.46875 29.3125 -9.34375 L 29.96875 -9.34375 L 33.28125 -7.375 C 32.28125 -4.875 30.679688 -2.910156 28.484375 -1.484375 C 26.285156 -0.0546875 23.40625 0.65625 19.84375 0.65625 C 16.507812 0.65625 13.644531 0 11.25 -1.3125 C 8.851562 -2.625 7.007812 -4.613281 5.71875 -7.28125 C 4.425781 -9.945312 3.78125 -13.257812 3.78125 -17.21875 C 3.78125 -21.132812 4.460938 -24.4375 5.828125 -27.125 C 7.191406 -29.8125 9.054688 -31.816406 11.421875 -33.140625 C 13.785156 -34.460938 16.488281 -35.125 19.53125 -35.125 C 23.945312 -35.125 27.394531 -33.878906 29.875 -31.390625 C 32.351562 -28.898438 33.601562 -25.207031 33.625 -20.3125 C 33.625 -18.394531 33.582031 -17.101562 33.5 -16.4375 Z M 28.59375 -20.3125 C 28.507812 -23.976562 27.695312 -26.644531 26.15625 -28.3125 C 24.613281 -29.976562 22.40625 -30.8125 19.53125 -30.8125 C 16.507812 -30.8125 14.140625 -29.972656 12.421875 -28.296875 C 10.703125 -26.617188 9.65625 -23.957031 9.28125 -20.3125 Z M 28.59375 -20.3125 "/></g></g></g><g fill="#ffffff" fill-opacity="1"><g transform="translate(755.748744, 774.374913)"><g><path d="M 15.71875 0.65625 C 13.550781 0.65625 11.546875 0.367188 9.703125 -0.203125 C 7.859375 -0.773438 6.300781 -1.5625 5.03125 -2.5625 C 3.757812 -3.5625 2.863281 -4.6875 2.34375 -5.9375 L 5.34375 -9.0625 L 6 -9.0625 C 7.125 -7.351562 8.476562 -6.066406 10.0625 -5.203125 C 11.644531 -4.335938 13.53125 -3.90625 15.71875 -3.90625 C 18.257812 -3.90625 20.191406 -4.398438 21.515625 -5.390625 C 22.835938 -6.378906 23.5 -7.757812 23.5 -9.53125 C 23.5 -10.882812 23.097656 -12.003906 22.296875 -12.890625 C 21.492188 -13.773438 20.195312 -14.4375 18.40625 -14.875 L 12.59375 -16.3125 C 9.488281 -17.0625 7.222656 -18.25 5.796875 -19.875 C 4.367188 -21.5 3.65625 -23.507812 3.65625 -25.90625 C 3.65625 -27.78125 4.132812 -29.410156 5.09375 -30.796875 C 6.050781 -32.179688 7.429688 -33.25 9.234375 -34 C 11.035156 -34.75 13.175781 -35.125 15.65625 -35.125 C 18.820312 -35.125 21.316406 -34.679688 23.140625 -33.796875 C 24.960938 -32.910156 26.382812 -31.675781 27.40625 -30.09375 L 24.53125 -27.28125 L 23.90625 -27.28125 C 22.800781 -28.550781 21.597656 -29.46875 20.296875 -30.03125 C 18.992188 -30.59375 17.445312 -30.875 15.65625 -30.875 C 13.382812 -30.875 11.644531 -30.46875 10.4375 -29.65625 C 9.226562 -28.84375 8.625 -27.664062 8.625 -26.125 C 8.625 -24.726562 9.050781 -23.601562 9.90625 -22.75 C 10.757812 -21.894531 12.25 -21.207031 14.375 -20.6875 L 20.09375 -19.3125 C 23.09375 -18.601562 25.257812 -17.425781 26.59375 -15.78125 C 27.925781 -14.132812 28.59375 -12.070312 28.59375 -9.59375 C 28.59375 -7.570312 28.113281 -5.789062 27.15625 -4.25 C 26.195312 -2.707031 24.75 -1.503906 22.8125 -0.640625 C 20.875 0.222656 18.507812 0.65625 15.71875 0.65625 Z M 15.71875 0.65625 "/></g></g></g><g fill="#ffffff" fill-opacity="1"><g transform="translate(787.621796, 774.374913)"><g><path d="M 23.3125 -5.46875 L 24.9375 -1.8125 C 24.125 -1 23.054688 -0.382812 21.734375 0.03125 C 20.410156 0.445312 18.976562 0.65625 17.4375 0.65625 C 10.851562 0.65625 7.5625 -2.675781 7.5625 -9.34375 L 7.5625 -30.3125 L 1.5625 -30.3125 L 1.5625 -34.5 L 7.5625 -34.5 L 7.5625 -41.78125 L 12.65625 -42.625 L 12.65625 -34.5 L 23.75 -34.5 L 23.75 -30.3125 L 12.65625 -30.3125 L 12.65625 -9.84375 C 12.65625 -5.882812 14.375 -3.90625 17.8125 -3.90625 C 19.6875 -3.90625 21.300781 -4.425781 22.65625 -5.46875 Z M 23.3125 -5.46875 "/></g></g></g></svg>